<?xml version="1.0" encoding="utf-8"?>
<!-- Generator: Adobe Illustrator 23.0.4, SVG Export Plug-In . SVG Version: 6.00 Build 0)  -->
<svg version="1.1" id="Laag_1" xmlns="http://www.w3.org/2000/svg" xmlns:xlink="http://www.w3.org/1999/xlink" x="0px" y="0px"
	 viewBox="0 0 226.1 222.3" style="enable-background:new 0 0 226.1 222.3;" xml:space="preserve">
<style type="text/css">
	.st0{fill:#FFFFFF;}
</style>
<g id="CtTIzM.tif">
	<g>
		<path class="st0" d="M133.5,162.5c5.4-1.2,10-2.1,14.5-3.3c21.4-5.5,33.7-21.6,34.8-44.9c0.6-12.3-1.1-23.9-9.1-33.9
			c-0.9-1.1-1.1-3.4-0.8-4.9c1.5-7.7,0.9-15.2-1.2-22.7c-0.8-2.6-2.2-4.3-5-3.3c-7.1,2.5-14.3,5-21.2,8.2c-3.6,1.7-6.6,2.7-10.7,1.9
			c-15.5-3.2-31.1-2.5-46.6,0.1c-2,0.3-4.4-0.3-6.4-1.1c-7.3-3-14.6-6.3-21.9-9.3c-3.7-1.6-6.1,0.5-6.5,3.9
			c-0.8,7-1.3,14.2-1.1,21.2c0.1,3-0.2,5.2-2,7.7c-14.9,20.9-9.7,54.6,10.5,69.6c7.7,5.7,16.8,7.8,25.9,9.8c1.3,0.3,2.6,0.6,3.9,0.9
			c-1.9,4.3-3.4,8.4-5.4,12.3c-0.8,1.5-2.3,3-3.8,3.5c-9.9,3.6-19,0.6-25.8-7.8c-2.8-3.5-5.6-7.4-9.2-9.8c-3.4-2.2-7.8-2.9-11.9-4
			c-0.7-0.2-2.3,0.7-2.4,1.2c-0.2,0.9,0.2,2.5,0.9,3c8.2,5.4,12.1,13.9,16.8,22c4.7,8.1,11.7,12.5,21.3,12.2c4.2-0.1,8.3,0,12.8,0
			c0,6.8,0.4,13.4-0.2,19.9c-0.4,3.8-3.7,4-7,2.9c-13.9-4.2-26.2-11.4-37-21c-20-17.6-32.5-39.8-36.4-65.9
			C-5.4,71.6,31.9,18.9,87.3,6.6c63.4-14,124.5,27,134.3,91c8.2,53.8-23.5,101.3-71.1,119c-7.2,2.7-9.3,1.2-9.6-6.5
			c-0.3-8.7-0.8-17.3-0.8-26C140.2,176.5,139.1,169.3,133.5,162.5z"/>
	</g>
</g>
</svg>
